<svg xmlns="http://www.w3.org/2000/svg" viewBox="0 0 80 80"><defs><style>.bba53ff1-d844-4b4a-944e-4358a17270ab{fill:#1abc9c;}</style></defs><g id="a92d41ca-322a-4b90-8e1b-4d48de3b9585" data-name="icons"><path class="bba53ff1-d844-4b4a-944e-4358a17270ab" d="M37.08,39.22a3.89,3.89,0,0,0-.21-.6c-2.41-2.58-2.77-4-1.45-5.77s3.14-1.9,6.13-.18c2.47,1.41,4.89,2.9,7.39,4.24C52.52,38.83,55.79,41,57.4,45A9.36,9.36,0,0,0,58.93,34.1c-2.1-4.1-4.53-8-6.82-12-.4-.69-.92-1.38-1.83-.93s-.72,1.2-.45,2q.86,2.5,1.62,5c.29,1,1.17,2.13,0,2.94s-1.9-.54-2.59-1.22c-3.13-3.05-6.2-6.17-9.3-9.27a11.36,11.36,0,0,0-1.35-1.25,1.17,1.17,0,0,0-1.66.1,1.09,1.09,0,0,0,.12,1.64c1,1.06,2,2.09,3.06,3.12,2.61,2.61,5.22,5.21,7.81,7.83.63.63,1.58,1.34.66,2.31s-1.66.05-2.3-.58q-6-6-12.06-12c-.44-.43-.86-.88-1.33-1.28s-1.24-.69-1.84-.07-.29,1.31.22,1.83c1.76,1.81,3.57,3.59,5.34,5.4.63.64,1.63,1.35.77,2.31-1,1.11-1.77,0-2.47-.63-1-.95-2-1.95-3-2.9a1.24,1.24,0,0,0-1.85-.08c-.66.65-.28,1.28.22,1.81,1.06,1.11,2.16,2.18,3.23,3.28.5.51,1,1.08.5,1.82s-1.1.62-1.81.32c-1.22-.51-1.91-.06-2.05,1.26-.08.78-.41,1.4-1.29,1.24a1.29,1.29,0,0,1-1-1.75c1.55-2.43.13-4.41-.23-6.73-.39-2.5.64-5.52,1.26-8.23.39-1.75,2.44-2.23,4.25-1.54A1.93,1.93,0,0,0,35,17.59c1.94-1.52,3.47-1.34,5.31.43,2.38,2.29,4.71,4.63,7.07,6.94,0,0,.14,0,.4,0-.2-.69-.45-1.32-.57-2a3.47,3.47,0,0,1,1.94-4c1.57-.85,3.27-.61,4.14.78C56.51,24.87,60.18,29.8,62,35.65c1.25,4.09.06,7.91-2.53,11.24a5.16,5.16,0,0,0-1.13,3.34A13.2,13.2,0,0,1,42,63.06c-5-1.2-10-2.57-14.9-3.92-2.52-.69-3.52-2-3.1-4.54.21-1.25-.38-1.45-1.23-1.68-2.29-.63-3.35-2.11-2.88-4.47A1.64,1.64,0,0,0,19,46.58a3.35,3.35,0,0,1-1.26-3.89,3.3,3.3,0,0,1,3-2.5A1.63,1.63,0,0,0,22.34,39c1-2.35,2.46-3,5-2.38C30.52,37.41,33.67,38.31,37.08,39.22ZM55.89,50a9.9,9.9,0,0,0-4.56-8.82c-3.86-2.5-7.93-4.68-11.92-7-.71-.41-1.47-.65-2,.17s.11,1.43.67,1.94c1.47,1.35,3,2.67,4.45,4,.6.56,1.46,1.11.89,2.1S42,43,41.13,42.8c-4.59-1.24-9.18-2.49-13.79-3.68-.9-.23-2.18-.76-2.55.59s1,1.5,1.91,1.75c4.43,1.23,8.89,2.39,13.32,3.61,1,.26,2.53.21,2.16,1.76s-1.71.8-2.68.54c-3.94-1-7.86-2.1-11.79-3.14-2-.53-4-1.07-6-1.55-.71-.16-1.43,0-1.6.87-.13.75.34,1.14,1,1.37s1,.31,1.55.45L39.05,49.8c1,.26,2.28.41,1.91,1.75s-1.6.82-2.54.57c-4.6-1.21-9.19-2.45-13.79-3.68-.87-.23-2-.71-2.34.54-.43,1.42.84,1.55,1.79,1.81,4.59,1.24,9.19,2.45,13.77,3.71.91.25,2.26.38,1.85,1.79-.36,1.22-1.54.76-2.39.55-2.9-.72-5.78-1.5-8.67-2.3-.92-.25-1.95-.62-2.3.62s.78,1.44,1.68,1.68c4.81,1.3,9.6,2.7,14.44,3.87A10.78,10.78,0,0,0,55.89,50Z"/></g></svg>