<svg xmlns="http://www.w3.org/2000/svg" viewBox="0 0 80 80"><defs><style>.ae8365d5-137c-46ec-9db0-dfde0e00869d{fill:#1abc9c;}</style></defs><g id="f2c5a608-34a5-4d50-9847-e4188491b12c" data-name="icons"><path class="ae8365d5-137c-46ec-9db0-dfde0e00869d" d="M38.79,57c0-2.15-.1-4.3,0-6.44.11-1.74-.59-2.45-2.26-2.71a44.49,44.49,0,0,1-13.08-4.21,26,26,0,0,1-8.59-6.45C10.61,32.11,11.45,26.31,17,22.65c4.37-2.87,9.36-3.68,14.45-4,1.15-.08,2.3,0,3.45,0,3.46,0,3.46,0,3.89-3.31.1-.76.11-1.68,1.15-1.69s1.08.86,1.15,1.66c.32,3.75.33,3.77,4,4.57a43.9,43.9,0,0,1,14.68,5.8,21.92,21.92,0,0,1,5.2,4.5c4.41,5.39,3.49,11.16-2.41,14.84-4,2.5-8.51,3.42-13.14,3.74a51.25,51.25,0,0,1-6.44,0c-1.56-.09-2,.5-2,2,.07,4.53,0,9.06,0,13.59,0,.87.25,2.13-1,2.18-1.46,0-1.24-1.32-1.26-2.25-.06-2.38,0-4.76,0-7.14ZM44.12,46.4c5.57,0,9.48-.24,13.21-1.57,3.52-1.26,7.15-2.69,7.94-6.87.83-4.43-2.23-7.12-5.36-9.45C55,24.81,49.22,22.9,43.2,21.81c-.73-.13-1.72-.83-2,.54-.25,1.12.31,1.62,1.41,1.9a11.07,11.07,0,0,1,5.6,3c2,2.14,1.66,4.68-.81,6.21-4.1,2.51-12.76,1.07-15.79-2.63-1.73-2.12-1.37-4.38,1-5.87a9.42,9.42,0,0,1,4.36-1.3c1-.08,1.9,0,1.83-1.41s-1.16-1.2-2-1.22c-2.15,0-4.31-.12-6.45,0-4.39.34-8.67,1.21-12.37,3.81s-4.39,6.43-1.71,10.18A20,20,0,0,0,23,40.78,45.66,45.66,0,0,0,44.12,46.4Zm-3-14c.84,0,1.07,0,1.3,0,1.75-.29,4.24,0,4.53-2.19.26-2-2.07-2.55-3.65-3.26-1.07-.48-2.11-.78-2.23,1a1,1,0,0,1-1.11.93A.93.93,0,0,1,39,28c-.25-2.78-2.14-2-3.73-1.69-1,.2-2.09.53-2.3,1.65s.85,1.89,1.75,2.46A13.27,13.27,0,0,0,41.1,32.38Z"/></g></svg>