<svg xmlns="http://www.w3.org/2000/svg" viewBox="0 0 80 80"><defs><style>.ad5211c2-724c-433d-a92e-0468e5a9fc9e{fill:#1abc9c;}</style></defs><g id="a6822aa4-1bef-4fa2-b930-6775ff8e683d" data-name="icons"><path class="ad5211c2-724c-433d-a92e-0468e5a9fc9e" d="M17.71,38.34c1-1.85.32-4,.1-6.27-.28-2.75,1.6-4.54,3.69-6a21,21,0,0,1,10.39-3.39c2-.15,2.89-.94,2.59-3a5.08,5.08,0,0,1,.1-1.6c.13-.64.48-1.17,1.24-1.08a1.14,1.14,0,0,1,1,1.11c0,.15,0,.3,0,.45.45,3.75.46,3.7,4.17,4.27a20.16,20.16,0,0,1,9.73,3.84c2.64,2.09,3.41,4.41,2.46,7.5a3.17,3.17,0,0,0,0,2.21c1.15,3.12,0,5.56-2.43,7.51a19.11,19.11,0,0,1-10.87,4c-2.47.17-3.28,1.05-3.1,3.5.21,2.9.09,5.83,0,8.75,0,1.05.52,2.79-1.1,2.79S34.51,61.16,34.49,60c-.06-3.07-.15-6.15,0-9.21.11-2-.68-2.7-2.57-2.84a20.85,20.85,0,0,1-10.78-3.61A7.19,7.19,0,0,1,17.71,38.34ZM34.1,25.5,34,24.9c-4.7.3-9.3,1-12.84,4.66-1.49,1.53-1.33,3.56.13,5.19a10.59,10.59,0,0,0,4.43,2.81,29.35,29.35,0,0,0,19.85.06,10.61,10.61,0,0,0,4.79-3.08,3.54,3.54,0,0,0,.12-4.83c-2.15-2.91-9.76-5.44-13.64-4.3,1.7.74,3.35.82,4.72,1.63,3.1,1.83,3.2,5,0,6.65a12.09,12.09,0,0,1-11.72,0c-3.2-1.69-3.17-4.85,0-6.59A31.08,31.08,0,0,1,34.1,25.5ZM20.46,37.41c-.86,2.62.56,4,2.22,5.18a19.61,19.61,0,0,0,9.52,3.13c5.51.58,10.88.06,15.84-2.68a6.29,6.29,0,0,0,3.25-3.72,1.42,1.42,0,0,0-.21-1.52c-.56-.52-1,.09-1.38.34a25,25,0,0,1-12.27,3.42C31.42,41.8,25.68,40.91,20.46,37.41Zm15.2-4.72A10,10,0,0,0,39.72,32c.75-.33,1.81-.65,1.66-1.64-.25-1.6-1.85-1.61-3-2.05-.89-.34-1.33-.09-1.6.93s-1.44,1.6-1.94.38c-1.09-2.66-2.6-1-3.81-.49-1.43.64-1.44,1.68,0,2.53A9,9,0,0,0,35.66,32.69Z"/><path class="ad5211c2-724c-433d-a92e-0468e5a9fc9e" d="M61.74,41.36h-.55v4.11a.54.54,0,0,1-.54.54h-.92a.54.54,0,0,1-.54-.54V41.36h-.55a.54.54,0,0,1-.46-.83l1.55-2.44a.54.54,0,0,1,.92,0l1.55,2.44A.54.54,0,0,1,61.74,41.36Z"/><path class="ad5211c2-724c-433d-a92e-0468e5a9fc9e" d="M61.74,32.64h-.55V28.53a.54.54,0,0,0-.54-.54h-.92a.54.54,0,0,0-.54.54v4.11h-.55a.54.54,0,0,0-.46.83l1.55,2.44a.54.54,0,0,0,.92,0l1.55-2.44A.54.54,0,0,0,61.74,32.64Z"/></g></svg>