<svg xmlns="http://www.w3.org/2000/svg" viewBox="0 0 80 80"><defs><style>.f8be4585-ae08-470d-87e6-8c47b24f5775{fill:#1abc9c;}</style></defs><g id="f172f77d-20f2-4283-bd9e-e47c8e68c1e4" data-name="icons"><path class="f8be4585-ae08-470d-87e6-8c47b24f5775" d="M42.94,31.17c-3.58-3.87-8.07-5.25-13.08-6.3.4,1.31,1.23,1.12,1.82,1.35a10.76,10.76,0,0,1,4,2.24c2.23,2.24,1.78,4.88-1.15,6-3.76,1.47-7.41.8-10.85-1.08-1.66-.91-3.13-2.2-2.79-4.36s2.21-2.73,4-3.31c.75-.25,2.2.27,2.13-.68-.07-1.13-1.49-.57-2.31-.62a17.71,17.71,0,0,0-6.58.89c-2.16.7-4.42,1.56-4.84,4.08s1.46,4.1,3.26,5.43A25.08,25.08,0,0,0,29.39,39.4,24.86,24.86,0,0,0,38.32,39a9.92,9.92,0,0,0,5.14-2.86c1.25-1.4,2.09-1.19,2.81.54,1,2.32.19,5-2.17,7-3.15,2.7-7,3.79-11,4.29-3.33.42-3.34.36-3.34,3.64,0,3.07,0,6.15,0,9.22,0,.87.24,2.14-1,2.19-1.46.05-1.25-1.33-1.27-2.26-.05-3.3-.13-6.6,0-9.9.08-2-.65-2.74-2.58-2.86a20.84,20.84,0,0,1-10.21-3.21c-4-2.59-4.84-5.42-2.7-9.69a1.82,1.82,0,0,0-.17-1.88c-1.81-3.79-.85-6.81,2.86-8.9a20,20,0,0,1,10.23-2.21c1.86,0,2.78-.45,2.56-2.41a4.93,4.93,0,0,1,.05-1.15c.08-.72.26-1.47,1.14-1.47a1.11,1.11,0,0,1,1.09,1.45c-.83,3.71,1.48,4.33,4.34,5a19.18,19.18,0,0,1,10.72,6.33c.79,1,1.54.7,2.44.45l18.45-4.93c.67-.18,1.33-.39,2-.52a1.17,1.17,0,0,1,1.44.85,1.1,1.1,0,0,1-.84,1.42c-1.08.37-2.2.66-3.31,1q-10.22,2.76-20.44,5.48a4.13,4.13,0,0,0-2.38,1.25,2.17,2.17,0,0,1-3.26.43,2.08,2.08,0,0,1-.72-2.66,2.25,2.25,0,0,1,3-1.29A1.57,1.57,0,0,0,42.94,31.17Zm1.45,7.69a23.85,23.85,0,0,1-4.93,2.21,30.59,30.59,0,0,1-23.8-3.92c-.53-.33-1-1.22-1.73-.73a2.32,2.32,0,0,0-.84,2c0,2.78,2,4.09,4.12,5a27.57,27.57,0,0,0,22.72.1A7.22,7.22,0,0,0,44.39,38.86ZM30.84,33c1.16-.41,3.41.19,3.58-1.71s-2-2.21-3.48-2.75c-.41-.16-.89-.32-1.13.33-.94,2.54-1.7,1.62-2.45-.12-.47-1.1-1.44-.66-2.21-.56s-1.58.34-1.8,1.2.51,1.4,1.13,1.82A12.86,12.86,0,0,0,30.84,33Z"/></g></svg>