<svg xmlns="http://www.w3.org/2000/svg" viewBox="0 0 80 80"><defs><style>.a84aef56-9fdc-48f2-afaa-07af08bf74e2{fill:#1abc9c;}</style></defs><g id="af7cd140-cd3d-4bc9-8a96-cbec5d7c751c" data-name="icons"><path class="a84aef56-9fdc-48f2-afaa-07af08bf74e2" d="M25.82,63.26c7,1,10.22-.46,12.82-6.44,4.78-11,4.7-22.21.08-33.32a13.94,13.94,0,0,0-3.38-4.9c-2.87-2.65-6-2.66-8.8,0-3.35,3.24-4.81,7.47-5.72,11.86-1.81,8.76-1.4,17.4,2.12,25.75.32.76.88,1.66-.19,2.21s-1.64-.41-2-1.25a42.81,42.81,0,0,1-3.25-20.49,39.57,39.57,0,0,1,3.36-14c2.66-5.74,6.63-9.13,13.46-8.64a150.39,150.39,0,0,0,15.89,0c4.87-.18,8.26,2,10.64,6,4.27,7.12,5.28,15,4.83,23.07a38.26,38.26,0,0,1-3.43,14.48,18.84,18.84,0,0,1-3.91,5.64A9.18,9.18,0,0,1,51.7,66c-11.68,0-23.35,0-35,0-.93,0-2.26.36-2.43-1s1.18-1.37,2.1-1.62c3.78-1,7.54-2.1,11.33-3.05C29,59.89,29.52,59.39,29,58a33.67,33.67,0,0,1-1.08-4c-.4-1.71-.74-3.19-2.89-3.84-1.94-.59-3.08-4.28-2.46-6.43.49-1.68,3.06-3.14,5.24-2.9,1.68.18,2.5,1.43,3,2.83.7,1.84,1.14,3.86-.35,5.43a2.45,2.45,0,0,0-.65,2.8c.74,2.5,1.29,5.06,2,7.55.45,1.46,0,2.18-1.4,2.54S27.58,62.77,25.82,63.26ZM51,56.38h0c2.45,0,4.91-.08,7.35,0a2.29,2.29,0,0,0,2.54-1.75A49,49,0,0,0,63.31,43c.17-1.44-.61-1.65-1.77-1.64-5,0-10,.07-14.95,0-1.6,0-2.19.62-2.25,2.12A37.3,37.3,0,0,1,42.1,54.9c-.42,1.14-.08,1.51,1.1,1.49C45.81,56.34,48.41,56.38,51,56.38Zm3-17.46h0c2.61,0,5.23,0,7.84,0,1.09,0,1.56-.38,1.44-1.48a43.86,43.86,0,0,0-2.53-12.13c-.34-.84-.72-1.44-1.79-1.43-5.3,0-10.6,0-15.9,0-1,0-1.42.29-1,1.35a39.83,39.83,0,0,1,2.32,11.93c.06,1.35.7,1.83,2,1.79C49,38.86,51.51,38.92,54,38.92Zm4.65-17.51c-1.45-2.62-3.2-4.53-5.76-4.66-5.17-.27-10.36-.08-15.77-.08,1.06,1.5,2,2.78,2.89,4.09a1.67,1.67,0,0,0,1.61.65Zm-.1,37.41c-5,0-9.63,0-14.28,0-4.22,0-4.8.36-6.67,4.68,5.38,0,10.66.37,15.9-.21C55.8,63,57.36,61.26,58.59,58.82ZM28.92,45.92c-.27-1.1-.13-2.65-1.89-2.51-1.05.09-2.47.31-2.11,2,.24,1.1.21,2.68,1.91,2.57C27.88,47.91,29.24,47.66,28.92,45.92Z"/></g></svg>