<svg id="e2817a6e-0edf-4585-84db-9cc06ce5558f" data-name="Calque 1" xmlns="http://www.w3.org/2000/svg" xmlns:xlink="http://www.w3.org/1999/xlink" viewBox="0 0 367 76"><defs><style>.e2606307-2fbd-4239-883f-1bd0ec9a4b54{fill:#bdc3c7;}.bde9917a-9ac3-4f21-ace6-fabed8e97af5{fill:url(#e9d214c0-f010-42f8-9205-0da06c1d6d7b);}.bad068dc-6d81-4456-9485-193a9bf1654a{fill:url(#baeb6955-3b61-4eaa-b6ab-8f794aacf771);}.f28306f7-cc17-431b-be0e-712bad552106{fill:url(#afeeec8b-e39a-4177-b286-95dfe321b95b);}</style><linearGradient id="e9d214c0-f010-42f8-9205-0da06c1d6d7b" x1="293.4" y1="42.42" x2="298.91" y2="32.89" gradientUnits="userSpaceOnUse"><stop offset="0" stop-color="#2b8271"/><stop offset="0.07" stop-color="#288d79"/><stop offset="0.24" stop-color="#22a289"/><stop offset="0.43" stop-color="#1db194"/><stop offset="0.65" stop-color="#1bb99a"/><stop offset="1" stop-color="#1abc9c"/></linearGradient><linearGradient id="baeb6955-3b61-4eaa-b6ab-8f794aacf771" x1="319.42" y1="51.99" x2="335.52" y2="24.1" xlink:href="#e9d214c0-f010-42f8-9205-0da06c1d6d7b"/><linearGradient id="afeeec8b-e39a-4177-b286-95dfe321b95b" x1="332.01" y1="56.73" x2="353.58" y2="19.35" xlink:href="#e9d214c0-f010-42f8-9205-0da06c1d6d7b"/></defs><path class="e2606307-2fbd-4239-883f-1bd0ec9a4b54" d="M58.56,61.73a.91.91,0,0,1-.3.66,1,1,0,0,1-.66.27h0a1.34,1.34,0,0,1-1-.62L34,35.24,22.5,47.43V61.56c0,.74-.31,1.1-.89,1.1h-.05c-.62,0-.93-.36-.93-1.1v-47q0-1.11.93-1.11h.05c.58,0,.89.37.89,1.11V44.88L51.27,14a1.73,1.73,0,0,1,1-.65h.06a.9.9,0,0,1,.67.29,1,1,0,0,1,.27.67.84.84,0,0,1-.25.63L35.27,33.82,58.36,61.21A.83.83,0,0,1,58.56,61.73Z"/><path class="e2606307-2fbd-4239-883f-1bd0ec9a4b54" d="M57.59,66.66a5.21,5.21,0,0,1-4.17-2.11L33.8,41.25,26.49,49V61.56a4.93,4.93,0,1,1-9.86,0v-47a4.93,4.93,0,1,1,9.86,0V34.73L48.35,11.3A5.42,5.42,0,0,1,52.3,9.38a4.92,4.92,0,0,1,3.64,1.53L56,11a4.92,4.92,0,0,1,1.29,3.35A4.83,4.83,0,0,1,56,17.71L40.63,34,61.41,58.63a4.85,4.85,0,0,1-.31,6.58l-.16.15A5,5,0,0,1,57.59,66.66Z"/><path class="e2606307-2fbd-4239-883f-1bd0ec9a4b54" d="M82.6,39.07V61.56c0,.73-.3,1.1-.9,1.1h0c-.62,0-.93-.37-.93-1.1V14.48q0-1.11.93-1.11h0q.9,0,.9,1.11V37.21h35.68V14.48q0-1.11.93-1.11h0q.9,0,.9,1.11V61.56c0,.73-.3,1.1-.9,1.1h0c-.62,0-.93-.37-.93-1.1V39.07Z"/><path class="e2606307-2fbd-4239-883f-1bd0ec9a4b54" d="M119.24,66.66a4.86,4.86,0,0,1-5-5.1V43.07H86.6V61.56a4.94,4.94,0,1,1-9.87,0V14.48a4.94,4.94,0,1,1,9.87,0V33.21h27.68V14.48a4.93,4.93,0,1,1,9.86,0V61.56A4.84,4.84,0,0,1,119.24,66.66Z"/><path d="M145.59,25.38a25.31,25.31,0,0,1,9.24-9.17,24.78,24.78,0,0,1,12.7-3.39,24.38,24.38,0,0,1,12.64,3.39,25.15,25.15,0,0,1,12.4,21.86,24.87,24.87,0,0,1-25,25.11,25.29,25.29,0,0,1-21.95-12.47,24.4,24.4,0,0,1-3.4-12.64A24.53,24.53,0,0,1,145.59,25.38Zm1.73,24.35a22.8,22.8,0,0,0,8.46,8.37,23.19,23.19,0,0,0,11.75,3.08A22.77,22.77,0,0,0,179.2,58.1a22.5,22.5,0,0,0,8.33-8.36,23,23,0,0,0,3-11.67,23.29,23.29,0,0,0-3-11.74,22.46,22.46,0,0,0-8.33-8.4,22.76,22.76,0,0,0-11.67-3.07A23.1,23.1,0,0,0,155.78,18a23,23,0,0,0-11.57,20.12A22.67,22.67,0,0,0,147.32,49.73Z"/><path class="e2606307-2fbd-4239-883f-1bd0ec9a4b54" d="M167.53,67.18a29.27,29.27,0,0,1-25.4-14.44,28.53,28.53,0,0,1-3.95-14.67,28.52,28.52,0,0,1,4-14.73h0a29.44,29.44,0,0,1,10.67-10.59,28.84,28.84,0,0,1,14.71-3.93,28.52,28.52,0,0,1,14.67,3.94,29.18,29.18,0,0,1,14.37,25.31,28.87,28.87,0,0,1-29,29.11ZM150.77,47.7a18.65,18.65,0,0,0,7,6.93,19.08,19.08,0,0,0,9.75,2.55,18.64,18.64,0,0,0,9.66-2.54,18.4,18.4,0,0,0,6.87-6.89,19,19,0,0,0,2.51-9.68,19.16,19.16,0,0,0-2.52-9.76,18.31,18.31,0,0,0-6.86-6.92,18.73,18.73,0,0,0-9.66-2.53,19.17,19.17,0,0,0-16.76,9.52,18.72,18.72,0,0,0-2.56,9.69,18.53,18.53,0,0,0,2.56,9.63Z"/><path class="e2606307-2fbd-4239-883f-1bd0ec9a4b54" d="M234.7,44H216.88V61.69c0,.65-.3,1-.9,1h0c-.62,0-.93-.32-.93-1V14.31a.83.83,0,0,1,.93-.94H234.7a14.78,14.78,0,0,1,7.67,2.08A15.32,15.32,0,0,1,248,21.06,15,15,0,0,1,250,28.74a14.8,14.8,0,0,1-2.46,8.33A15.47,15.47,0,0,1,241,42.66l7.73,18.69a1.75,1.75,0,0,1,.07.34,1,1,0,0,1-.29.68.92.92,0,0,1-.64.29h-.11a1.06,1.06,0,0,1-.51-.15,1.11,1.11,0,0,1-.45-.54l-7.74-18.58A15.32,15.32,0,0,1,234.7,44Zm-17.82-1.93H234.7a13.32,13.32,0,0,0,6.77-1.78,13,13,0,0,0,4.84-4.84,13.27,13.27,0,0,0,1.76-6.72A13.49,13.49,0,0,0,246.31,22a13.24,13.24,0,0,0-11.61-6.69H216.88Z"/><path class="e2606307-2fbd-4239-883f-1bd0ec9a4b54" d="M247.9,66.66h-.11a4.93,4.93,0,0,1-2.47-.67,5.05,5.05,0,0,1-2.13-2.36l-.06-.12-6.49-15.59c-.63.06-1.28.09-1.94.09H220.88V61.69a4.93,4.93,0,1,1-9.86,0V14.31A4.82,4.82,0,0,1,216,9.37H234.7A18.89,18.89,0,0,1,244.4,12a19.34,19.34,0,0,1,7,7.05A19.09,19.09,0,0,1,254,28.74a18.76,18.76,0,0,1-3.13,10.54,19.54,19.54,0,0,1-4.82,5.06l6.6,16.06a5.35,5.35,0,0,1,.18,1.29,5,5,0,0,1-4.93,5Zm-27-28.58H234.7a9.3,9.3,0,0,0,4.77-1.24,9,9,0,0,0,3.37-3.38,9.14,9.14,0,0,0,1.23-4.72,9.36,9.36,0,0,0-1.24-4.8,9,9,0,0,0-3.37-3.42,9.2,9.2,0,0,0-4.76-1.25H220.88Z"/><path d="M273.56,13.37h14.89a25.74,25.74,0,0,1,13,3.34,24.9,24.9,0,0,1,9.26,9,24.22,24.22,0,0,1,0,24.68,24.85,24.85,0,0,1-9.26,9,25.92,25.92,0,0,1-13,3.31h-15a.84.84,0,0,1-.83-1V14.31A.83.83,0,0,1,273.56,13.37ZM309,26.62a22.78,22.78,0,0,0-8.6-8.27,24.39,24.39,0,0,0-12.09-3H274.49V60.73h13.82a24.49,24.49,0,0,0,12.09-3,22.73,22.73,0,0,0,8.6-8.22,22.37,22.37,0,0,0,0-22.86Z"/><path class="e2606307-2fbd-4239-883f-1bd0ec9a4b54" d="M288.45,66.66H273.12a4.8,4.8,0,0,1-4.49-5V14.31a4.82,4.82,0,0,1,4.93-4.94h14.89a29.91,29.91,0,0,1,15,3.86,29,29,0,0,1,10.71,10.42,28.2,28.2,0,0,1,0,28.79A28.9,28.9,0,0,1,303.4,62.83,30.05,30.05,0,0,1,288.45,66.66Zm-10-9.93h9.82a20.49,20.49,0,0,0,10.15-2.52,18.6,18.6,0,0,0,7.11-6.8,17.51,17.51,0,0,0,2.57-9.34,17.73,17.73,0,0,0-2.57-9.39h0a18.73,18.73,0,0,0-7.12-6.84,20.35,20.35,0,0,0-10.14-2.53h-9.82Z"/><circle class="bde9917a-9ac3-4f21-ace6-fabed8e97af5" cx="296.15" cy="37.66" r="5.5"/><path class="bad068dc-6d81-4456-9485-193a9bf1654a" d="M326.12,20.64A4.36,4.36,0,0,1,332,23.45a52.33,52.33,0,0,1-.25,29.44,4.34,4.34,0,0,1-5.81,2.69l-.68-.28a4.36,4.36,0,0,1-2.5-5.29,42.56,42.56,0,0,0,.19-23.91,4.33,4.33,0,0,1,2.53-5.18Z"/><path class="f28306f7-cc17-431b-be0e-712bad552106" d="M350.37,37.8a69.21,69.21,0,0,1-3.31,21.37,4.36,4.36,0,0,1-5.82,2.73l-.66-.27a4.34,4.34,0,0,1-2.5-5.31,59.87,59.87,0,0,0,2.86-18.52,60.44,60.44,0,0,0-2.66-17.94,4.34,4.34,0,0,1,2.52-5.27l.67-.27a4.35,4.35,0,0,1,5.83,2.77A70,70,0,0,1,350.37,37.8Z"/></svg>