<svg xmlns="http://www.w3.org/2000/svg" viewBox="0 0 80 80"><defs><style>.b3d5d177-ce0e-4683-9293-5b09e1cafbb8{fill:#1abc9c;}</style></defs><g id="b15c966e-3aff-4c24-ac34-94afd9026075" data-name="icons"><path class="b3d5d177-ce0e-4683-9293-5b09e1cafbb8" d="M10.79,39.92c0-2.22.09-4.46,0-6.68a8.75,8.75,0,0,1,3.78-7.72c3.68-2.87,8-4.18,12.53-4.85,7.42-1.09,14.7-.59,21.65,2.47a24.13,24.13,0,0,1,3.57,2.09A1.17,1.17,0,0,1,52.72,27c-.51.71-1.2.53-1.83.1-4.67-3.2-10-4.21-15.49-4.48a34.72,34.72,0,0,0-16,2.72,14.55,14.55,0,0,0-3.88,2.45c-3.14,2.82-3.14,6.11.11,8.85,3.46,2.93,7.68,4.15,12.06,4.7,6.63.84,13.18.59,19.46-2a13.27,13.27,0,0,0,5.76-4.09c.3-.4.8-.84.48-1.42s-.81-.32-1.25-.32c-3.15,0-6.3,0-9.45,0a3.6,3.6,0,0,0-1.93.6,2.23,2.23,0,0,1-3.24-.6,2,2,0,0,1,.16-2.75,2.11,2.11,0,0,1,3.09-.36,4,4,0,0,0,2.81.65q10.95,0,21.9,0h1.61c.91,0,2.12-.12,2.13,1.14S68,33.45,67,33.45c-2.53,0-5.09.19-7.6,0s-3,.74-2.9,3c.17,3.14-.11,6.31.08,9.45.26,4.54-1.85,7.6-5.55,9.84a29.34,29.34,0,0,1-12.2,3.85c-6.81.74-13.49.27-19.88-2.45a17.46,17.46,0,0,1-5.24-3.3,8.41,8.41,0,0,1-2.94-6.72C10.87,44.69,10.79,42.3,10.79,39.92ZM34.9,50.57c0,1.69.05,3.38,0,5.06-.06,1.33.51,1.75,1.78,1.68a35.87,35.87,0,0,0,9.66-2,1.87,1.87,0,0,0,1.38-2.07c-.05-3.23-.07-6.45,0-9.67,0-1.44-.46-1.72-1.74-1.27a31.49,31.49,0,0,1-9.46,1.78c-1.16,0-1.67.44-1.63,1.63C35,47.34,34.9,49,34.9,50.57Zm-2.46.21c0-1.68,0-3.36,0-5,0-1-.22-1.59-1.38-1.62a33.67,33.67,0,0,1-9.88-1.81c-1.24-.41-1.63,0-1.61,1.25q.06,4.83,0,9.64a2,2,0,0,0,1.54,2.2,42.74,42.74,0,0,0,9,1.91c2,.23,2.6-.5,2.41-2.4C32.34,53.55,32.45,52.16,32.44,50.78ZM54.05,38.25c-1.29,1.23-3.68,1.23-3.79,3-.23,3.84-.07,7.71-.07,12,2.2-1.36,3.68-2.82,3.81-5C54.19,44.93,54.05,41.59,54.05,38.25Zm-36.9,15a77.39,77.39,0,0,1,.07-9c.41-3.28-1.22-4.85-4-6.18,0,3.17.05,6.14,0,9.12C13.18,50,14.59,51.65,17.15,53.28Z"/></g></svg>