<svg xmlns="http://www.w3.org/2000/svg" viewBox="0 0 80 80"><defs><style>.e4e67c71-4a47-4d0e-9f5a-9e0c7f1e85af{fill:#1abc9c;}</style></defs><g id="be50a6ce-f7d2-49db-96c3-91b243dd0cff" data-name="icons"><path class="e4e67c71-4a47-4d0e-9f5a-9e0c7f1e85af" d="M53.05,26.06a16.18,16.18,0,0,0-6-2.4,38.53,38.53,0,0,0-20.68.62,18.44,18.44,0,0,0-5.95,3c-4,3.08-4,6.87,0,9.9a21.44,21.44,0,0,0,8.62,3.66c7.2,1.51,14.36,1.44,21.32-1.13,3.62-1.34,7.18-3,7.94-7.49.11-.65.5-1.18,1.24-1.11s1.06.77,1.06,1.52c0,5.37.06,10.75-.1,16.12-.08,2.65-1.86,4.48-3.88,6-4.13,3.09-9,4.35-14,4.88a39.34,39.34,0,0,1-18.58-2.11A19.34,19.34,0,0,1,18.17,54,8.5,8.5,0,0,1,15,47.16c.09-4.53.18-9.07,0-13.59-.18-3.92,1.55-6.61,4.59-8.7a27.63,27.63,0,0,1,13-4.4c8.08-.86,16-.19,23.14,4.12a2.56,2.56,0,0,0,2.19.18c1.7-.49,3.42-.89,5.11-1.38.83-.24,1.64-.25,1.94.64.38,1.11-.49,1.45-1.36,1.69Q57.79,27.3,52,28.85c-3.63,1-7.27,1.91-10.9,2.89a5.91,5.91,0,0,0-3.4,1.74,2,2,0,0,1-2.91.23A2.15,2.15,0,0,1,34,31.06a2,2,0,0,1,2.55-1.42c1.61.58,3,0,4.45-.37ZM52,48.52c0-1.68,0-3.36,0-5.05,0-1.18-.21-1.7-1.55-1.23a33.3,33.3,0,0,1-9.88,1.87c-1.1,0-1.47.61-1.47,1.59,0,3.29,0,6.58,0,9.87,0,1.47.73,1.8,2,1.72a34.54,34.54,0,0,0,6.32-1C52,55.15,52,55.12,52,50.36ZM23.7,48.31c0,1.69,0,3.38,0,5.07a1.63,1.63,0,0,0,1.13,1.78A32.82,32.82,0,0,0,34.9,57.29c1.19.06,1.7-.44,1.69-1.6q0-4.95,0-9.9c0-1.13-.48-1.65-1.65-1.7a33.65,33.65,0,0,1-9.69-1.84c-1.32-.46-1.61,0-1.57,1.23C23.74,45.09,23.69,46.7,23.7,48.31Zm-6.13-9.93c0,3.56-.06,6.93,0,10.29,0,1.46,1.07,2.51,2.09,3.47.32.3.68.74,1.17.56s.37-.78.37-1.21a71.1,71.1,0,0,1,.08-7.59C21.63,41,20.37,39.47,17.57,38.38Zm36.87,8.25V51.7c0,1.23.49,1.34,1.35.6a5.88,5.88,0,0,0,2.41-4.52c0-2.15.07-4.3,0-6.45,0-.94.47-2.55-.45-2.66-1.16-.15-2.27,1.06-3.12,2-.29.33-.19,1-.2,1.57C54.42,43.72,54.43,45.17,54.44,46.63Z"/></g></svg>